# xmcd CD database file
#
# Track frame offsets:
#	150
#	22512
#	39096
#	58152
#	76344
#	101592
#	116588
#	130775
#	146567
#	161711
#	175297
#
# Disc length: 2636 seconds
#
# Revision: 1
# Processed by: cddbd v1.5.2PL0 Copyright (c) Steve Scherf et al.
# Submitted via: CDex 1.51
#
DISCID=840a4a0b
DTITLE=The Tubes - Now
DYEAR=1977
DGENRE=Rock
TTITLE0=Smoke (La Vie En Fumer)
TTITLE1=Hit Parade
TTITLE2=Strung Out On Strings
TTITLE3=Golden Boy
TTITLE4=My Head Is My Only House Unless It Rains
TTITLE5=God-Bird-Change
TTITLE6=I'm Just A Mess
TTITLE7=Cathy's Clone
TTITLE8=This Town
TTITLE9=Pound Of Flesh
TTITLE10=You're No Fun
EXTD=YEAR: 1977
EXTT0=
EXTT1=
EXTT2=
EXTT3=
EXTT4=
EXTT5=
EXTT6=
EXTT7=
EXTT8=
EXTT9=
EXTT10=
PLAYORDER=
